<?xml version="1.0" encoding="utf-8"?>
<!-- Generator: Adobe Illustrator 23.0.1, SVG Export Plug-In . SVG Version: 6.00 Build 0)  -->
<svg version="1.1" id="Layer_1" xmlns="http://www.w3.org/2000/svg" xmlns:xlink="http://www.w3.org/1999/xlink" x="0px" y="0px"
	 viewBox="0 0 354.9 165.4" style="enable-background:new 0 0 354.9 165.4;" xml:space="preserve">
<style type="text/css">
	.st0{fill:#EF373E;}
	.st1{fill:#FFFFFF;}
</style>
<g>
	<rect x="33.1" y="33.1" class="st0" width="99.2" height="99.2"/>
	<polygon class="st0" points="136.3,33.1 136.3,132.3 236.7,132.3 236.7,99.2 285.1,99.2 285.1,66.1 321.9,66.1 321.9,33.1 	"/>
</g>
<g>
	<path class="st1" d="M79.7,48.2H49v11.2h30.7v56.3h11.5V76.8c0-4,3.4-7.2,7.7-7.2h17.2V59.4H79.7V48.2z"/>
	<polygon class="st1" points="266.2,42 268.4,38.9 266.1,38.9 264.8,40.5 263.5,38.9 261.2,38.9 263.3,42 	"/>
	<polygon class="st1" points="232.3,56.5 224.9,56.5 224.9,51.9 231.6,51.9 231.6,49.5 224.9,49.5 224.9,45.1 232,45.1 232,42.7 
		222.1,42.7 222.1,58.9 232.3,58.9 	"/>
	<polygon class="st1" points="152.3,55 152.2,55 148.3,42.7 145.4,42.7 150.7,58.9 153.5,58.9 158.7,42.7 156.1,42.7 	"/>
	<polygon class="st1" points="230.2,38.9 227.1,38.9 225.2,42 227.3,42 	"/>
	<polygon class="st1" points="309.7,38.9 306.7,38.9 304.8,42 306.9,42 	"/>
	<path class="st1" d="M178.9,58.9h3.7c2.3,0,3.9-1.6,3.9-3.9v-1.5c0-2.3-1.6-3.9-3.9-3.9h-3.2c-0.8,0-1.4-0.6-1.4-1.4v-1.7
		c0-0.8,0.6-1.4,1.4-1.4h2.9c0.8,0,1.4,0.6,1.4,1.4v1.1h2.8v-1c0-2.3-1.6-3.9-3.9-3.9h-3.3c-2.3,0-3.9,1.6-3.9,3.9V48
		c0,2.3,1.6,3.9,3.9,3.9h3.2c0.8,0,1.4,0.6,1.4,1.4v1.8c0,0.8-0.6,1.4-1.4,1.4h-3.2c-0.8,0-1.4-0.6-1.4-1.4V54H175v1
		C175,57.3,176.6,58.9,178.9,58.9z"/>
	<polygon class="st1" points="165.4,58.9 168.1,58.9 168.1,52 173.6,42.7 170.7,42.7 167,49.3 166.9,49.3 163.3,42.7 160.1,42.7 
		165.4,52 	"/>
	<polygon class="st1" points="277,51.9 283.7,51.9 283.7,49.5 277,49.5 277,45.1 284.2,45.1 284.2,42.7 274.3,42.7 274.3,58.9 
		284.4,58.9 284.4,56.5 277,56.5 	"/>
	<rect x="304.5" y="42.7" class="st1" width="2.8" height="16.2"/>
	<polygon class="st1" points="209.5,54.1 211.2,51.9 215.8,58.9 219.1,58.9 213.1,49.5 218.4,42.7 215.4,42.7 209.6,50.1 
		209.5,50.1 209.5,42.7 206.7,42.7 206.7,58.9 209.5,58.9 	"/>
	<polygon class="st1" points="297.3,53.8 297.3,53.8 290.9,42.7 288.1,42.7 288.1,58.9 290.9,58.9 290.9,47.8 291,47.8 297.3,58.9 
		300.1,58.9 300.1,42.7 297.3,42.7 	"/>
	<path class="st1" d="M250.7,58.9c2.3,0,3.9-1.6,3.9-3.9V42.7h-2.8v12.4c0,0.8-0.6,1.4-1.4,1.4h-3.7c-0.8,0-1.4-0.6-1.4-1.4V42.7
		h-2.8v12.2c0,2.3,1.6,3.9,3.9,3.9H250.7z"/>
	<path class="st1" d="M194.6,58.9h4.2c2.3,0,3.9-1.6,3.9-3.9v-8.3c0-2.3-1.6-3.9-3.9-3.9h-4.2c-2.3,0-3.9,1.6-3.9,3.9v8.3
		C190.7,57.3,192.3,58.9,194.6,58.9z M193.5,46.5c0-0.8,0.6-1.4,1.4-1.4h3.7c0.8,0,1.4,0.6,1.4,1.4v8.6c0,0.8-0.6,1.4-1.4,1.4h-3.7
		c-0.8,0-1.4-0.6-1.4-1.4V46.5z"/>
	<path class="st1" d="M266.6,58.9c2.3,0,3.9-1.6,3.9-3.9v-1h-2.8v1.1c0,0.8-0.6,1.4-1.4,1.4h-3.2c-0.8,0-1.4-0.6-1.4-1.4v-8.6
		c0-0.8,0.6-1.4,1.4-1.4h3.2c0.8,0,1.4,0.6,1.4,1.4v1.1h2.8v-1c0-2.3-1.6-3.9-3.9-3.9H263c-2.3,0-3.9,1.6-3.9,3.9v8.3
		c0,2.3,1.6,3.9,3.9,3.9H266.6z"/>
	<polygon class="st1" points="153.5,91.3 153.5,77.5 158.1,77.5 158.1,75.1 146.1,75.1 146.1,77.5 150.8,77.5 150.8,91.3 	"/>
	<polygon class="st1" points="193.2,84.4 199.7,84.4 199.7,91.3 202.5,91.3 202.5,75.1 199.7,75.1 199.7,82 193.2,82 193.2,75.1 
		190.5,75.1 190.5,91.3 193.2,91.3 	"/>
	<polygon class="st1" points="257.6,75.1 254.6,75.1 248.8,82.5 248.7,82.5 248.7,75.1 245.9,75.1 245.9,91.3 248.7,91.3 
		248.7,86.5 250.5,84.3 255,91.3 258.4,91.3 252.3,81.9 	"/>
	<polygon class="st1" points="264.4,74.4 266.6,74.4 269.4,71.3 266.3,71.3 	"/>
	<path class="st1" d="M238,75.1h-3.7c-2.3,0-3.9,1.6-3.9,3.9v8.3c0,2.3,1.6,3.9,3.9,3.9h3.7c2.3,0,3.9-1.6,3.9-3.9v-1h-2.8v1.1
		c0,0.8-0.6,1.4-1.4,1.4h-3.2c-0.8,0-1.4-0.6-1.4-1.4v-8.6c0-0.8,0.6-1.4,1.4-1.4h3.2c0.8,0,1.4,0.6,1.4,1.4V80h2.8v-1
		C241.9,76.7,240.3,75.1,238,75.1z"/>
	<polygon class="st1" points="171.3,88.9 163.9,88.9 163.9,84.4 170.6,84.4 170.6,82 163.9,82 163.9,77.5 171.1,77.5 171.1,75.1 
		161.1,75.1 161.1,91.3 171.3,91.3 	"/>
	<polygon class="st1" points="264.1,84.4 270.8,84.4 270.8,82 264.1,82 264.1,77.5 271.2,77.5 271.2,75.1 261.3,75.1 261.3,91.3 
		271.5,91.3 271.5,88.9 264.1,88.9 	"/>
	<path class="st1" d="M186.5,87.4v-1h-2.8v1.1c0,0.8-0.6,1.4-1.4,1.4h-3.2c-0.8,0-1.4-0.6-1.4-1.4v-8.6c0-0.8,0.6-1.4,1.4-1.4h3.2
		c0.8,0,1.4,0.6,1.4,1.4V80h2.8v-1c0-2.3-1.6-3.9-3.9-3.9h-3.7c-2.3,0-3.9,1.6-3.9,3.9v8.3c0,2.3,1.6,3.9,3.9,3.9h3.7
		C184.9,91.3,186.5,89.7,186.5,87.4z"/>
	<polygon class="st1" points="218.8,91.3 218.8,75.1 216.1,75.1 216.1,86.2 216,86.2 209.6,75.1 206.8,75.1 206.8,91.3 209.6,91.3 
		209.6,80.2 209.7,80.2 216.1,91.3 	"/>
	<rect x="223.2" y="75.1" class="st1" width="2.8" height="16.2"/>
	<polygon class="st1" points="217.7,103.7 215.3,103.7 217.5,106.8 220.3,106.8 222.5,103.7 220.3,103.7 219,105.4 	"/>
	<path class="st1" d="M193.6,113.5v-2.1c0-2.3-1.6-3.9-3.9-3.9h-7.4v16.2h2.8v-6.2h2.7l3.3,6.2h3l-3.3-6.3
		C192.5,116.9,193.6,115.5,193.6,113.5z M189.4,115.1H185v-5.1h4.4c0.8,0,1.4,0.6,1.4,1.4v2.4C190.8,114.5,190.3,115.1,189.4,115.1z
		"/>
	<polygon class="st1" points="152.3,119.9 152.2,119.9 148.3,107.5 145.4,107.5 150.7,123.7 153.5,123.7 158.7,107.5 156.1,107.5 	
		"/>
	<polygon class="st1" points="206.7,118.6 206.7,118.6 200.3,107.5 197.5,107.5 197.5,123.7 200.3,123.7 200.3,112.6 200.4,112.6 
		206.7,123.7 209.5,123.7 209.5,107.5 206.7,107.5 	"/>
	<polygon class="st1" points="216.7,116.8 223.4,116.8 223.4,114.4 216.7,114.4 216.7,109.9 223.8,109.9 223.8,107.5 213.9,107.5 
		213.9,123.7 224.1,123.7 224.1,121.3 216.7,121.3 	"/>
	<path class="st1" d="M176.3,115.5L176.3,115.5c1.1-0.7,1.7-1.8,1.7-3.2v-0.9c0-2.3-1.6-3.9-3.9-3.9h-7.3v16.2h7.6
		c2.3,0,3.9-1.6,3.9-3.9v-1C178.4,117.2,177.6,116.1,176.3,115.5z M169.6,109.9h4.3c0.8,0,1.4,0.6,1.4,1.4v1.8
		c0,0.7-0.5,1.2-1.2,1.2h-4.4V109.9z M175.6,119.9c0,0.8-0.6,1.4-1.4,1.4h-4.6v-4.5h4.8c0.7,0,1.2,0.5,1.2,1.2V119.9z"/>
</g>
</svg>
